/* XPM */
static char *_e9a6f861afb410a80cb23ab11500944Fq2G9aJMPS0BfSnX[] = {
/* columns rows colors chars-per-pixel */
"42 42 131 2 ",
"   c None",
".  c #010101",
"X  c #0A0505",
"o  c #0F0C06",
"O  c #07090B",
"+  c #0B0C0D",
"@  c #120F07",
"#  c #140A0A",
"$  c #1B0D0D",
"%  c #141008",
"&  c #0C0F11",
"*  c #0E1113",
"=  c #121212",
"-  c #14191C",
";  c #181818",
":  c #250F0F",
">  c #25100F",
",  c #231111",
"<  c #2C1515",
"1  c #271F10",
"2  c #221F18",
"3  c #331716",
"4  c #361A1A",
"5  c #3E1E1D",
"6  c #232019",
"7  c #352B16",
"8  c #1E2121",
"9  c #222222",
"0  c #2C2B2B",
"q  c #232B30",
"w  c #2B343B",
"e  c #3D3D3D",
"r  c #4E2625",
"t  c #502625",
"y  c #532827",
"u  c #552928",
"i  c #5A2B2A",
"p  c #602E2D",
"a  c #673231",
"s  c #693332",
"d  c #733736",
"f  c #743837",
"g  c #763938",
"h  c #7B3B3A",
"j  c #574624",
"k  c #5F4D27",
"l  c #524B3B",
"z  c #604D27",
"x  c #655129",
"c  c #68542B",
"v  c #333E46",
"b  c #3E3F40",
"n  c #3F4040",
"m  c #354149",
"M  c #444444",
"N  c #4F4F4F",
"B  c #404E58",
"V  c #4E5050",
"C  c #45555F",
"Z  c #555555",
"A  c #5B5B5B",
"S  c #526471",
"D  c #5A6D7B",
"F  c #646464",
"G  c #6A6A6A",
"H  c gray49",
"J  c #813E3D",
"K  c #85403F",
"L  c #874140",
"P  c #8E4443",
"I  c #934746",
"U  c #9C4B4A",
"Y  c #A24E4D",
"T  c #A7514F",
"R  c #AB5351",
"E  c #B15554",
"W  c #B65856",
"Q  c #B85957",
"!  c #BC5B59",
"~  c #9D7E40",
"^  c #C25E5C",
"/  c #C7605F",
"(  c #CD6361",
")  c #D36664",
"_  c #DA6967",
"`  c #DC6A69",
"'  c #E36E6C",
"]  c #E9706F",
"[  c #EE7270",
"{  c #F37574",
"}  c #F87776",
"|  c #FB7977",
" . c #FF7C7A",
".. c #A68544",
"X. c #A88745",
"o. c #BB974D",
"O. c #CEA655",
"+. c #D1A856",
"@. c #F0C163",
"#. c #F9C764",
"$. c #FFCD67",
"%. c #FFCD69",
"&. c #FFD16B",
"*. c #5F7382",
"=. c #617685",
"-. c #6A8191",
";. c #7690A2",
":. c #7993A5",
">. c #7B96A9",
",. c #838383",
"<. c gray54",
"1. c gray57",
"2. c #9B9B9B",
"3. c #85A1B6",
"4. c #8BAABF",
"5. c #A5A5A5",
"6. c #A7A7A8",
"7. c #A9A9A9",
"8. c #B7B7B7",
"9. c #BBBBBC",
"0. c #DDC79C",
"q. c #FCE4B2",
"w. c #8EACC2",
"e. c #C2C2C2",
"r. c gray81",
"t. c #D2D2D2",
"y. c #DADADA",
"u. c #E7E7E7",
"i. c gray92",
"p. c #F6F6F6",
"a. c #FFFFFF",
/* pixels */
"                                                                              . . . ",
"                                                                      . . . . % o . ",
"                  . . . . . . . . . . . . . . . . . . . . . . . . . . @ 7 c ..O.j . ",
"                . + = = = = = = = = = = = = = = = = = = = = + . 6 x ~ O.@.%.%.%.k . ",
"                . ,.y.t.t.t.t.t.t.t.t.t.t.t.t.t.t.t.t.t.t.t.<.. ..%.%.%.%.%.%.%.k . ",
"                . 1.i.u.i.u.u.u.u.u.u.i.u.i.u.u.i.u.u.u.p.a.7.X X.&.%.%.%.%.%.%.k . ",
". . . . . . . . . = 8 8 8 8 8 8 8 8 8 ; 8 8 8 8 8 8 9 2 ,.a.6.. X.&.%.%.%.%.%.%.k . ",
". , i i i i i i i i u i i u i i i i u i i u i u u i t . N a.7.. ..&.%.%.%.%.%.%.k . ",
". p  . . . .|  . . . .|  . . . . . . . . . . . . . .' : V a.6.. X.&.%.%.%.%.%.%.k . ",
". i  .R p i i W  .T J }  .( s ' [ g ^  .P u u i i ( [ : V a.6.X ..&.%.%.%.%.%.%.k . ",
". p | t . # $ L  .g . U [ 5 # ) ) X h  .s # . X < W [ : V a.6.. X.&.%.%.%.%.%.%.k . ",
". p | r > ) ] }  .' 3 $ u . L  .( X h  .} / # i ]  .] : V a.6.. ..&.%.%.%.%.%.%.k . ",
". p | r # P U '  . .W o . r {  .( X h  . .` # a  . .[ : V a.6.. X.&.%.%.%.%.%.%.k . ",
". p | r . . X Y  . .` $ . g  . .( X h  . .` # s  . .' : V a.6.X ..&.%.%.%.%.%.%.k . ",
". p  .r $ R ! {  .} i X $ # !  .( + h  . .` # s  . .] : V a.6.. ..&.%.%.%.%.%.%.k . ",
". i | r : ! ( [  .U X a ! $ 4 ' ( # h @. .` # s  . .] > V a.6.. ..&.%.%.%.%.%.%.k . ",
". i  .y . X X h [ < < `  .I . P ) X J  . .` # s  . .] : V a.6.. ..&.%.%.%.%.%.%.k . ",
". i  .^ J J J / } U /  . .{ U ( } U )  . .} Y /  . .] : V a.9.2 o.&.%.%.%.%.%.%.k . ",
". i { } { { } { { { { { { { } { { { { { [ { { { { { ` : N a.p.0.#.%.%.%.%.%.%.%.k . ",
". # 4 4 4 4 4 4 4 4 3 3 3 3 3 3 3 3 3 3 3 3 3 3 3 3 < . N a.a.q.$.%.%.%.%.%.%.$.k . ",
". . . . . . . . . 9 M n e b b b b b b b b b b b n e b b 2.a.t.l O.%.%.%.%.%.%.%.k . ",
"                . 2.p.p.p.p.p.p.p.p.p.p.p.p.p.p.p.p.p.p.p.a.r.l O.%.%.%.%.%.%.%.k . ",
"                . 2.a.a.a.a.a.a.a.a.a.a.a.a.a.a.a.a.a.a.a.a.a.q.$.%.%.%.%.%.%.%.k . ",
"                . 5.a.a.a.a.a.a.a.a.a.a.a.a.a.a.a.a.a.a.a.a.a.0.#.%.%.%.%.%.%.%.k . ",
"                . 5.a.a.p.e.r.a.a.a.a.a.a.a.a.a.a.a.a.a.a.a.9.6 o.&.%.%.%.%.%.%.k . ",
"                . 5.a.a.i.0 1 -.u.a.a.a.a.a.a.a.a.a.a.a.a.a.6.. ..&.%.%.%.%.%.%.k . ",
"              . . F 2.2.<.= . . 0 2.p.a.a.a.a.a.a.a.a.a.a.a.6.. X.&.%.%.%.%.%.%.k . ",
"    . . . . X . O . . O . . m S - . M 9.a.a.a.a.a.a.a.a.a.a.5.X ..&.%.%.%.%.%.%.k . ",
"    . q =.=.=.=.*.*.=.=.*.*.>.w.:.B & + F y.a.a.a.a.a.a.a.a.6.. X.&.%.%.%.%.%.%.k . ",
"    . m w.w.w.w.w.w.w.w.w.w.4.4.4.4.=.* . Z p.a.a.a.a.a.a.a.5.X ..&.%.%.%.%.%.%.k . ",
"    . w ;.:.:.:.;.;.;.;.:.:.3.w.3.D 8 . e 8.a.a.a.a.a.a.a.a.5.. ..&.%.%.%.%.%.%.k . ",
"    . . * * * * * & O & & & C -.w . 9 1.i.a.a.a.a.a.a.a.a.a.7.. ..&.%.%.%.%.%.%.k . ",
"      . . . . . . M G G A + + + @ G y.a.a.a.a.a.a.a.a.a.a.a.6.X ..&.%.%.%.%.%.%.k . ",
"                . 2.a.a.u.; . N e.a.a.a.a.a.a.a.a.a.a.a.a.a.6.. ..&.%.%.%.%.%.%.k . ",
"                . 2.a.a.p.2.6.p.a.a.a.a.a.a.a.a.a.a.a.a.a.a.5.. X.&.%.%.%.%.%.%.k . ",
"                . 5.a.a.a.a.a.a.a.a.a.a.a.a.a.a.a.a.a.a.a.a.6.X ..&.%.%.%.%.%.%.k . ",
"                . 5.a.a.a.a.a.a.a.a.a.a.a.a.a.a.a.a.a.a.a.a.7.. X.&.%.%.%.%.%.%.k . ",
"                . ,.t.t.t.t.r.t.t.t.r.t.t.r.t.t.t.t.t.t.t.t.<.. ..&.&.%.%.%.%.%.k . ",
"                . + = = = = = = = = = = = = = = = = = = = = + . 1 x ~ O.@.%.&.%.k . ",
"                  . . . . . . . . . . . . . . . . . . . . . . . . . . @ 7 c ..O.j . ",
"                                                                      . . . . @ o . ",
"                                                                              . . . "
};
