/* XPM */
static char *a11fd33de1df4f78e7439bbe4aa73c89RYFfj1Ui14sXAI7P[] = {
/* columns rows colors chars-per-pixel */
"42 42 140 2 ",
"   c None",
".  c #271306",
"X  c #2C1607",
"o  c #22150C",
"O  c #351B09",
"+  c #3B1E0C",
"@  c #321F12",
"#  c #3E210E",
"$  c #2E221A",
"%  c #312116",
"&  c #3D2311",
"*  c #31231B",
"=  c #44230D",
"-  c #4C260D",
";  c #4E280F",
":  c #50270D",
">  c #542A0E",
",  c #5B2D0F",
"<  c #442511",
"1  c #492710",
"2  c #462815",
"3  c #4B2A13",
"4  c #542C12",
"5  c #5B2E11",
"6  c #522F19",
"7  c #563217",
"8  c #5D3114",
"9  c #5D3419",
"0  c #5E3919",
"q  c #602F0F",
"w  c #602F10",
"e  c #633312",
"r  c #6C3612",
"t  c #673816",
"y  c #6C3916",
"u  c #643719",
"i  c #643B1B",
"p  c #6C3B1A",
"a  c #703712",
"s  c #733A15",
"d  c #793E17",
"f  c #733E1B",
"g  c #7A3F18",
"h  c #6C411D",
"j  c #75421D",
"k  c #7C431C",
"l  c #76491F",
"z  c #7E491F",
"x  c #7D4621",
"c  c #774A20",
"v  c #7D4A21",
"b  c #83451C",
"n  c #86481E",
"m  c #894A1F",
"M  c #814721",
"N  c #844A22",
"B  c #8C4C22",
"V  c #914F23",
"C  c #845023",
"Z  c #8C5123",
"A  c #925422",
"S  c #915126",
"D  c #945324",
"F  c #965225",
"G  c #955326",
"H  c #945327",
"J  c #965326",
"K  c #975326",
"L  c #925725",
"P  c #905526",
"I  c #925426",
"U  c #945625",
"Y  c #975624",
"T  c #975527",
"R  c #945324",
"E  c #985326",
"W  c #985427",
"Q  c #995427",
"!  c #985626",
"~  c #9A5626",
"^  c #9B5627",
"/  c #9B5727",
"(  c #995527",
")  c #975A26",
"_  c #9B5A25",
"`  c #9B5826",
"'  c #995A26",
"]  c #9C5C25",
"[  c #9B5A26",
"{  c #995528",
"}  c #9A5528",
"|  c #9B5628",
" . c #9A5728",
".. c #9D5729",
"X. c #9B5628",
"o. c #965A28",
"O. c #995B28",
"+. c #9D5828",
"@. c #9D5829",
"#. c #9E5929",
"$. c #9F5B28",
"%. c #9E582A",
"&. c #9F592A",
"*. c #9F5B2A",
"=. c #9F5D29",
"-. c #9E5C2A",
";. c #9D5A29",
":. c #A05E27",
">. c #A0592A",
",. c #A15B2A",
"<. c #A15D29",
"1. c #A15F2B",
"2. c #A25F2B",
"3. c #A55F2C",
"4. c #A25D2A",
"5. c #9E622A",
"6. c #A36029",
"7. c #A1632B",
"8. c #A2622B",
"9. c #A5602B",
"0. c #A4612B",
"q. c #A5612B",
"w. c #A6622B",
"e. c #A5612B",
"r. c #A8622C",
"t. c #A8632C",
"y. c #A9642D",
"u. c #A8662C",
"i. c #AA662D",
"p. c #A9682D",
"a. c #AD692E",
"s. c #AE692E",
"d. c #B06B2E",
"f. c #B06B2F",
"g. c #B16C2F",
"h. c #B16C2F",
"j. c #B36F30",
"k. c #B46F30",
"l. c #B46F30",
"z. c #B57130",
/* pixels */
"      h u 0 0     h l j p     c c l i 7 o o   7 < . <         2 i i i 3 3 h 7 #     ",
"v j 7 =.n z E j N ,.;.R R p i u.A A { R 6 9 ;.p.b u b u @ 0 Z O.6.' A Z z t f C N 1 ",
"j m 9 =.] ' I Z E V V b j f R A a a n u.B p E j.#.B u f I ' k m ..E G b C n p y y = ",
"1 - t E 3.1.B f s a a r 8 N b d a r R j.t.p a A V y r E %.E B E ..#.s.6.m m A > > 7 ",
"9 8 e s b b d , w e u e 8 x B Y V B >.g.i.M > e , > g V V A E V b d n ^ E V y + q > ",
"B Y 5 r a r a 5 4 N 1.3.{ f B %...E A m B b = h p : e b B b s d m n a s d w 5 b 7.l ",
"N ) k e r a e - x %.f.j.%.N e b b s a q , = = 6.=.e > : e d a b G d r e e 1 w s m Z ",
"i G 1.B 8 3 t 8 B %.r.3.} V q ; , , : p u 3 e B 6.V V g , : e g g q ; l I 6.u r y e ",
": b ,.r.B 9 ' N k ..V g d r > p z k Z 6.f j M G ,.{ m y e k k 5 t x 8 { N ,.y # 5 + ",
"> a d b b k ;.1.e y d r r > a 6.r.1.%.M Z Z t G ..b > 4 N a.6.f B ..p M V d w j j & ",
"= r r r a 8 a b q # > , , + r d b b r f f.1.8 s g 5 4 f y s t 4 d g e - r w e N B p ",
"8 e e a r + > r , e a y y 1 1 e r , : j %.{ d , , 4 x Z > j I B e r e u 5 5 e g V t ",
"4 > = , > e = > j 6.6.t.=.t C Z y e 8 e d s a , > r e w n s.s.] t e Z a.a.u.C t y - ",
"X 5 k b B B , b s.6...N 8 e Z B N x t = q e e 8 e 5 5 5 n Z k a r k b b V :.a.E 8   ",
"= Z s.:.V V e d m d 8 8 g r & 1 d j k y e a u I r.k N u k d r r e , e 5 , q y s 8   ",
"N g.z.m r b i > 4 < k 6.3.f p t u.z.r.G #.3.x f R { V e Z Y d s 5 4 d Z e , > 8 M u ",
"p 6.3.s a d k ; 8 4 I f.N e N y A s.a.f.z.z.' 5 a j 5 e a.a.} V t G a.f.k k n 3.i.p ",
"X a d a a j G e b j 9 f 4 q m j r V V D E 3.E 1 > u f y R G B e 5 1.i.A j 3.s.i.B   ",
"7 > r a a d d > A 3.t 8 k w b B 5 r a a a s g < p i.Y e a y = < 5 b d 4 5 N V b e   ",
"B M e r r , > b s.3.j u.u.4 r d q - r a a a y e { r.N > 5 4 3 x e e j N t e a w u 6 ",
"h N d # - , k Y :.b ' s.%.2 = , 5 1 @ , , , , 4 b g s 5 3 N g V 8 Z j.g.j < t N ^ k ",
"& e , - > e r s y j ..m a 4 5 e k { p 9 r w 5 - w r r 4 G s.f t d ,.3.{ j ) g.i.B 6 ",
"  = r g d q , e > 5 a e , r s D s.g.%.f E A B R f 5 e u 1.j.x > r k d e M j.:.d e e ",
", b 3.t.E n g e f t e # t m a E g.z.1.N r.s.V b B f } y b a.a.t q r r 4 b B e t #.) ",
"y 6.z.s.E ..B x s.3.E t g N r B ,.r.,.j b F d y y M b e b >.i.u.N w u e 8 1 e B %.Y ",
"  p 1.Y d a 3 d A b B V u a a d m b G 8 - y r 5 > d q = a s d m V j %.{ x 1 > a g b ",
"= 5 a y e & = q r r b n f = , , w , 5 e q > = & > 5 = 1 , r a r w g b f f i j k u , ",
"- g x x O.k r f e , , - > w k 8 , e r a a a ; v N f M x a , , , : > w f B u.u.E k   ",
"  e A s.z.) t :.#.b p , s N i.f e k m D #.b q B a.6.Y z #.b m B f 5 r g d b s a 5   ",
"* = a m B 8 a 6.3.V B e n r.t.R w D g.g.f.%.s a b B k 5.i.,.s.f.j y e 5 , : 5 t f 8 ",
"* = e y e 4 r g d r 5 5 V 3.E N x f j b V N > e r q f s.>.E u.3.u f V S p e u t e & ",
"+ j Z e j p.f 5 e t 4 : b m g a b 8 g t > u 9 4 > > r V d d V t + : t f f 1.p.Z 6 * ",
": a _ A M i.x 3 N %.E f r a a a e j r.N 4 B ,.V V N e a a r u i k j r 8 e E 3.E f @ ",
"4 u a D N m y B ,.j.f.3.f w w 4 f r.=.k p e k E 3.t.b , , 4 B a.z.f.%.E p t s r >   ",
"t s e V f V B f B 3.s.t.k - 3 # a b y k s a u d %.z.r.2 # ; d B #.>.E %.B 4 , e k   ",
"- > e p 6 a d 6 5 g b n e b G M 5 r r x d r j r b Y k 4 N b > r d k d b a e m D 1.9 ",
"X - y M k k 5 f p 4 r 5 u G } H p f e p B b g 4 4 > : r Y 3.p ; r r a e > m i.f.%.3 ",
"> d ,.>.b B k e k H f 2 i b N M %.,.B e s s e a r k n e b V f b h , > 4 B s.z.s.j > ",
"q s V ^ u.s.Y 4 k t.,.B f N n g b d d f , : e D m s.C e a q , b m m u 1 b E 6.Z > , ",
"- r a d A 1.k 3 y b V k 5 g s 4 q a r y , > q b m ' j e r : e a a a k 5 r a d d :   ",
"  + e r a 8 > r : 5 a ,   5 e O O q r 5 k r , a r a r > ,   , r r r e = , r r a ,   ",
"    = w >   8 p     >             O = + 4 - = - - , -           = =       - > > >   "
};